<?xml version="1.0" encoding="UTF-8"?>
<svg id="Lag_1" xmlns="http://www.w3.org/2000/svg" version="1.1" viewBox="0 0 1967.5 408.5">
  <!-- Generator: Adobe Illustrator 29.3.1, SVG Export Plug-In . SVG Version: 2.1.0 Build 151)  -->
  <defs>
    <style>
      .st0 {
        fill: #fff;
      }
    </style>
  </defs>
  <path class="st0" d="M467.9,101.5c10.2-5.5,22-8.3,35.7-8.3s30.3,4,43.3,12.1c12.9,8.1,23.1,19.6,30.6,34.6,7.5,15,11.2,32.4,11.2,52.3s-3.8,37.3-11.2,52.4c-7.5,15.1-17.7,26.8-30.6,35-12.9,8.2-27.3,12.3-43.3,12.3s-25.2-2.8-35.5-8.3c-10.3-5.5-18.3-12.7-24.1-21.5v119.1h-59.2V96h59.2v27.3c5.8-9,13.7-16.3,23.9-21.8M516.2,157.4c-8.2-8.4-18.3-12.6-30.3-12.6s-21.8,4.3-29.9,12.8c-8.2,8.5-12.3,20.2-12.3,35s4.1,26.4,12.3,35c8.2,8.5,18.2,12.8,29.9,12.8s21.8-4.3,30.1-13c8.3-8.7,12.5-20.4,12.5-35.1s-4.1-26.4-12.3-34.8"/>
  <path class="st0" d="M705,103.1c10.4-6.1,21.9-9.2,34.6-9.2v62.7h-16.3c-14.8,0-25.9,3.2-33.2,9.5-7.4,6.4-11.1,17.5-11.1,33.4v89.7h-59.2V96h59.2v32.2c6.9-10.6,15.6-19,26-25.1Z"/>
  <path class="st0" d="M804.9,279.8c-15.1-8.1-27-19.6-35.7-34.6-8.7-15-13-32.5-13-52.6s4.4-37.3,13.2-52.4c8.8-15.1,20.8-26.7,36-34.8,15.2-8.1,32.3-12.1,51.2-12.1s36,4,51.2,12.1c15.2,8.1,27.2,19.7,36,34.8,8.8,15.1,13.2,32.6,13.2,52.4s-4.4,37.3-13.3,52.4c-8.9,15.1-21,26.7-36.3,34.8-15.4,8.1-32.5,12.1-51.4,12.1s-35.9-4-51.1-12.1ZM884.9,228.2c8-8.3,11.9-20.2,11.9-35.7s-3.9-27.3-11.6-35.7c-7.7-8.3-17.3-12.5-28.6-12.5s-21.1,4.1-28.7,12.3c-7.6,8.2-11.4,20.1-11.4,35.8s3.7,27.3,11.3,35.7c7.5,8.3,16.9,12.5,28.2,12.5s20.9-4.2,28.9-12.5"/>
  <path class="st0" d="M1195.7,101.5c10.2-5.5,22-8.3,35.7-8.3s30.3,4,43.3,12.1c12.9,8.1,23.1,19.6,30.6,34.6,7.5,15,11.3,32.4,11.3,52.3s-3.8,37.3-11.3,52.4c-7.5,15.1-17.7,26.8-30.6,35-12.9,8.2-27.3,12.3-43.3,12.3s-25.2-2.8-35.5-8.3c-10.3-5.5-18.3-12.7-24.1-21.5v119.1h-59.2V96h59.2v27.3c5.8-9,13.7-16.3,23.9-21.8ZM1244,157.4c-8.2-8.4-18.3-12.6-30.3-12.6s-21.8,4.3-29.9,12.8c-8.2,8.5-12.3,20.2-12.3,35s4.1,26.4,12.3,35c8.2,8.5,18.2,12.8,29.9,12.8s21.8-4.3,30.1-13c8.3-8.7,12.5-20.4,12.5-35.1s-4.1-26.4-12.3-34.8"/>
  <path class="st0" d="M1432.8,103.1c10.4-6.1,21.9-9.2,34.6-9.2v62.7h-16.3c-14.8,0-25.8,3.2-33.2,9.5-7.4,6.4-11.1,17.5-11.1,33.4v89.7h-59.2V96h59.2v32.2c6.9-10.6,15.6-19,26-25.1"/>
  <rect class="st0" x="1495.8" y="96" width="59.2" height="193.2"/>
  <path class="st0" d="M1769.8,115.9c13.5,14.7,20.2,34.8,20.2,60.4v112.9h-58.8v-104.9c0-12.9-3.3-23-10-30.1-6.7-7.2-15.7-10.7-27-10.7s-20.3,3.6-27,10.7c-6.7,7.2-10,17.2-10,30.1v104.9h-59.2V96h59.2v25.6c6-8.5,14.1-15.3,24.2-20.3,10.2-5,21.6-7.4,34.3-7.4,22.6,0,40.7,7.3,54.2,22Z"/>
  <path class="st0" d="M1938.9,239v50.2h-30.1c-21.5,0-38.2-5.2-50.2-15.8-12-10.5-18-27.6-18-51.4v-76.9h-23.5v-49.2h23.5v-47.1h59.2v47.1h38.8v49.2h-38.8v77.5c0,5.8,1.4,9.9,4.2,12.5,2.8,2.5,7.4,3.8,13.8,3.8h21.1Z"/>
  <path class="st0" d="M1555,52.9h0c0,15.6-11.6,28.2-25.8,28.2h-6.6c-14.3,0-25.8-12.6-25.8-28.2s11.6-28.2,25.8-28.2h6.6c14.3,0,25.8,12.6,25.8,28.2Z"/>
  <path class="st0" d="M30.8,315.9v-167.2c0-36.9,29.9-66.8,66.8-66.8h167.2c36.9,0,66.8,29.9,66.8,66.8v167.2c0,36.9-29.9,66.8-66.8,66.8H97.6c-36.9,0-66.8-29.9-66.8-66.8M178.8,105.9c-6.9,3.9-7.8,9.5-2.9,17,1.1,2.5,1.4,4.5.7,5.9-.7.7-37.8,21.1-54.2,30.9-.3.2-.7.3-1.1.3l-8.6.5c-.6,0-1.1.3-1.5.7-9.8,9.4-19,19.5-27.6,30.2-.1.2-.3.4-.3.6l-.9,2c-.3.7-1,1.2-1.7,1.4-3.2.8-6.1,2.7-8.2,5.3-3.7,6.5,1.4,7.7,5.9,9.8,7.3,3.1,15.8,4.6,22.4-2.2,1.4-1.7-1.7-8.5-1.9-9.5-.9-2,8.7-7,13.3-8.7,8.7-4.7,19.3-6,28.9-9.3.4-.1.7-.3,1-.6l2.7-2.8c.5-.5,1.3-.8,2-.7l10.7,1.2c1,.1,1.8.8,2,1.7,2.9,9.4,4.7,19.2,7.3,28.6.2.6,0,1.3-.2,1.9l-6.3,10.6c0,0,0,.2-.1.2-.6,1.3-5.6,12.8-7.7,18.6-.2.5-.2,1.1,0,1.7,1.9,5-6.1,27.1-8.9,36.6-.3.9-1.1,1.6-2.1,1.7l-1.7.2c-3.9,1.2-9.1-.2-12.6.6-.5.1-.8.4-1.1.8-12.6,15.8-43.1,45.2-40.7,48-.6,3.5-3.9,1.5-6.5,1.8-.7,0-1.3.5-1.6,1.1l-5.6,9.3c-.5.8-.5,1.8,0,2.6,5.5,8,15.9,14.5,23.6,21.9,1.2,1.6,3.9.8,5-.4-1.3-8.1.7-16.4-1-25.3l.9-.7c3,1.4,43-35.9,65-48.2,1.1-.6,2.5-.3,3.1.8.9,1.3,1.7,3.2,2.5,4.8.8,1.5,2.9,1.7,4,.4,8.4-10.1,16.2-20.7,23.4-31.6.6.2,2.1-3.1,3.1-5.2.5-1.1,1.6-1.6,2.8-1.3,5.4,1.4,11,2.1,16.4,3.4,2,.5,2.5,3,.9,4.3l-8.7,6.6c-.7.5-1,1.3-.9,2.2,1,11-1.5,32.4,4.8,34.9,1.2.5,1.7,2,1.3,3.2-.8,2.2-2.8,4.3-3.7,6.5-.7,1.6-2.8,4.5.6,5.7,9.3,2.3,18.8,4,28.3,5,2.3-.6,1.8-2.9,2.1-4.4.1-.5,0-1-.2-1.5-2.5-4.8-9.9-9.4-4.9-14.5,4.8.2,17.1-38.8,28.1-56.2v-1.8s-32.8-24.7-32.8-24.7c0,0,0,0-.1,0l-9.4-6.1c-.7-.5-1.1-1.2-1.1-2,0-1.5.3-2.9.8-4.3l.4-2.4,7.9-29.1.9.7c5.8-.3,10.1.1,15.6.3.4,0,.9,0,1.2-.3,10.1-5.6,28.1-12.8,38-24.6,3.4,0,2-9.5.4-12.6-.2-.5-.4-1-.3-1.5.8-3.6-1.8-10.3-5.2-14.2-.4-.4-.9-.7-1.4-.8-7.2-1.2-7.4,2-12,.5-5.2-2-2.9,6.7.6,16.9.5,1.4-.5,3-2,3.2l-26.4,3.1c-1.5.2-2.8-1-2.7-2.5,0-.7-.2-1.4-.7-1.8-7.5-7.2-28.8-20.6-29.8-19.1l-1.7-.6c-1.7-.6-2.2-2.8-.8-4.1,5.6-5.1,10.5-12.2,2.7-18.7-9.2-10.7-21.7-9.1-31.6-1.4Z"/>
  <path class="st0" d="M997.6,170.3h64.7c5.1,0,9.3,4.2,9.3,9.3v26c0,5.1-4.2,9.3-9.3,9.3h-64.7c-5.1,0-9.3-4.2-9.3-9.3v-26c0-5.1,4.2-9.3,9.3-9.3"/>
</svg>